<svg id="fav" xmlns="http://www.w3.org/2000/svg" width="24" height="24" viewBox="0 0 24 24">
  <g id="Group_1" data-name="Group 1">
    <rect id="Rectangle_4" data-name="Rectangle 4" width="24" height="24" fill="none"/>
  </g>
  <g id="Group_7" data-name="Group 7">
    <g id="Group_6" data-name="Group 6">
      <g id="Group_2" data-name="Group 2">
        <path id="Path_5" data-name="Path 5" d="M16.67,13.13A4.651,4.651,0,0,1,19,17v3h4V17C23,14.82,19.43,13.53,16.67,13.13Z" fill="#EE3A68" fill-rule="evenodd"/>
      </g>
      <g id="Group_3" data-name="Group 3">
        <circle id="Ellipse_1" data-name="Ellipse 1" cx="4" cy="4" r="4" transform="translate(5 4)" fill="#EE3A68"/>
      </g>
      <g id="Group_4" data-name="Group 4">
        <path id="Path_6" data-name="Path 6" d="M15,12a4,4,0,0,0,0-8,4.178,4.178,0,0,0-1.33.24,5.98,5.98,0,0,1,0,7.52A4.178,4.178,0,0,0,15,12Z" fill="#EE3A68" fill-rule="evenodd"/>
      </g>
      <g id="Group_5" data-name="Group 5">
        <path id="Path_7" data-name="Path 7" d="M9,13c-2.67,0-8,1.34-8,4v3H17V17C17,14.34,11.67,13,9,13Z" fill="#EE3A68" fill-rule="evenodd"/>
      </g>
    </g>
  </g>
</svg>
